#!OML:ASF F:\VICON\USERDATA\INSTALL\rory3\rory3.ASF
:FULLY-SPECIFIED
:DEGREES
130
root -0.06601241352646296 17.705363731848063 61.86569862088127 2.2898791884220713 -0.6629013167773444 -0.7591671642251208
lfemur -7.4216168010507975 -3.3908977899771195 -19.622027610691774
ltibia 63.72024155990789
lfoot 11.1907831198871 0.8284285746840716
ltoes -5.369653187811491
rfemur -21.36376842545281 4.586114665483262 27.0115108421791
rtibia 40.62472915971735
rfoot -13.682126096120971 -5.91613698971532
rtoes -11.876102369578879
lowerback 11.617923593896624 -0.7055777018198397 0.49643349220865907
upperback -0.6526365091344795 -0.8515232862969806 2.3092267478671085
thorax -7.347583166737308 -0.47381624379095466 2.097461690410432
lowerneck -16.64321905514359 -3.2697560778237054 -3.2435027552368405
upperneck 19.830010848900933 -3.653210506719004 2.547419072083381
head 8.829890399897003 -1.763207308507309 1.2850677756977646
lclavicle -1.6749931429765781e-15 -3.591745518052462e-15
lhumerus -45.20555613456791 -3.587108665341911 89.78115241670812
lradius 68.863916919205
lwrist 19.47892241593765
lhand -29.12658776923968 10.648160415452098
lfingers 7.125019999999999
lthumb -2.8379239926124886 40.286143195918825
rclavicle -1.6777019054491209e-15 -3.593646985144034e-15
rhumerus -39.520757979173 -7.118579325789412 -86.15737260081356
rradius 56.78867036285115
rwrist 0.2096988570365541
rhand -17.919514475538207 28.763211057805904
rfingers 7.125019999999999
rthumb 7.868495993377104 -0.30850955066509045
131
root -0.051741705828196476 17.71719292314337 61.70822985999085 2.4397064213302695 -0.8295196689807876 -0.3177150124809831
lfemur -7.925983259052 -3.597480648783426 -20.155033769312727
ltibia 63.29889493111461
lfoot 7.957896658213343 2.1158509178802785
ltoes -5.828864280627963
rfemur -20.96489347932514 4.223174631879947 26.48217511879845
rtibia 41.04758203083402
rfoot -11.03715686559283 -4.662870502971277
rtoes -14.271573627361338
lowerback 11.561328041581822 -0.6938257336357803 0.2004956890091949
upperback -0.7170560483423478 -0.9014050890035239 2.150354320048096
thorax -7.286922324390691 -0.495233450263903 2.2017646563439732
lowerneck -16.71679734123157 -3.258322268787569 -3.2283566707566784
upperneck 19.708552715493877 -3.6520163502378664 2.5454237189417546
head 8.81934046585644 -1.763743657549781 1.2826188018389881
lclavicle -1.6761939486003604e-15 -3.592593784910253e-15
lhumerus -45.56745983476991 -3.4515328717517537 89.539454242404
lradius 68.64571076931125
lwrist 19.00087050104616
lhand -29.14929271962167 10.587033833488135
lfingers 7.125019999999999
lthumb -2.763376668719781 40.191397429384985
rclavicle -1.677514186750639e-15 -3.593514201186628e-15
rhumerus -39.59001356836044 -7.000319863556186 -85.98198470053717
rradius 56.8305803178575
rwrist 0.17841724409970183
rhand -17.937309942226946 28.643152336618837
rfingers 7.125019999999999
rthumb 7.770090176789024 -0.2702375662564981
132
root -0.04728130774395503 17.70209512251739 61.45834592019279 2.5264021293814203 -0.8962538070586952 0.4153460457502933
lfemur -7.821754969540085 -3.8184479782106333 -21.03331417056371
ltibia 62.064826715177816
lfoot 4.729856902723496 3.0959009150232273
ltoes -6.496583628999586
rfemur -21.215524897492067 3.6142656043847747 25.514039493155334
rtibia 42.50805606558243
rfoot -7.115330956875875 -3.338661858021188
rtoes -14.883919351565769
lowerback 11.55006226107807 -0.6823293056833957 -0.3271838894190986
upperback -0.7252304402703985 -0.9786358120786125 1.9068723869386113
thorax -7.191167277790462 -0.5316041819565313 2.398284354645896
lowerneck -16.771356932374413 -3.2413663310099707 -3.2238656228993117
upperneck 19.55425637185899 -3.6495599934647727 2.5590575349766436
head 8.796126755264133 -1.7625658879191741 1.2876993312237306
lclavicle -1.6764389308752326e-15 -3.592765927718142e-15
lhumerus -45.88823344640197 -3.4494025671564126 89.26102398170623
lradius 68.52608450028433
lwrist 18.849475370413963
lhand -29.320056851226855 10.521460344734594
lfingers 7.125019999999999
lthumb -2.8408456114869702 40.18052519488074
rclavicle -1.677102924722375e-15 -3.5932233854872634e-15
rhumerus -39.58405441424713 -7.043868472218171 -85.78405069049587
rradius 56.80291833482277
rwrist 0.38848712118630324
rhand -18.02252326735574 28.713357436349405
rfingers 7.125019999999999
rthumb 7.65276548067713 -0.0058349787031433675
133
root -0.05486510745656666 17.677484612069822 61.3053835074536 2.598842941059157 -1.062982473453292 0.15893722533605992
lfemur -7.7648204417912945 -3.8037175023379772 -20.818307924139962
ltibia 60.91273709103312
lfoot 1.7764506343112136 3.5688986410024874
ltoes -6.510419054580083
rfemur -21.920967090830057 3.377633684969894 25.518412174680805
rtibia 44.406077722515896
rfoot -1.8997778852114564 -2.4975173104239152
rtoes -13.381558244033574
lowerback 11.67734945737903 -0.6691073826124725 -0.07361367199656033
upperback -0.7685877613537226 -0.916643680552194 1.9192230354725222
thorax -7.19145816434967 -0.5084985436730307 2.367411753056887
lowerneck -16.806492719210535 -3.2210880847973886 -3.204835037130162
upperneck 19.44229782843903 -3.6228674305305724 2.4686679124994404
head 8.790791168354266 -1.7531120776778686 1.261999882741427
lclavicle -1.6761465283006785e-15 -3.592560284655736e-15
lhumerus -46.08017902705329 -3.593617125389147 88.95238638609165
lradius 68.46540057881019
lwrist 18.128728400377046
lhand -29.302746428864797 10.454403237331615
lfingers 7.125019999999999
lthumb -2.7737117925728874 40.19690213867579
rclavicle -1.6770114790272824e-15 -3.5931587148123e-15
rhumerus -39.48456088632403 -7.284440034606054 -85.50828922395876
rradius 56.644362311186455
rwrist 0.8527618272311894
rhand -18.008614713529514 28.948875369954106
rfingers 7.125019999999999
rthumb 7.632270244158389 0.24165963196549772
